{"title":"UFC 194 Official Weigh-Ins 720p WEB-DL x264 - TX -={SPARROW}=-","uid":12967567,"size":817689273,"categoryP":"video","categoryS":"hd___tv_shows","magnet":"?xt=urn:btih:2cc29e4733669f078e9254d185511c36ee059aca&amp;dn=UFC+194+Official+Weigh-Ins+720p+WEB-DL+x264+-+TX+-%3D%7BSPARROW%7D%3D-&amp;tr=udp%3A%2F%2Ftracker.leechers-paradise.org%3A6969&amp;tr=udp%3A%2F%2Fzer0day.ch%3A1337&amp;tr=udp%3A%2F%2Fopen.demonii.com%3A1337&amp;tr=udp%3A%2F%2Ftracker.coppersurfer.tk%3A6969&amp;tr=udp%3A%2F%2Fexodus.desync.com%3A6969","seeders":1,"leechers":0,"uploader":"CenaCme","files":2,"time":1449905650,"description":"UFC 194 Official Weigh-Ins 720p WEB-DL x264 - TX\r\n\r\nVideo\r\nID                                       : 1\r\nFormat                                   : AVC\r\nFormat/Info                              : Advanced Video Codec\r\nFormat profile                           :   \r\nFormat settings, CABAC                   : Yes\r\nFormat settings, ReFrames                : 1 frame\r\nCodec ID                                 : avc1\r\nCodec ID/Info                            : Advanced Video Coding\r\nDuration                                 : 36mn 59s\r\nBit rate                                 : 2 753 Kbps\r\nMaximum bit rate                         : 7 031 Kbps\r\nWidth                                    : 1 280 pixels\r\nHeight                                   : 720 pixels\r\nDisplay aspect ratio                     : 16:9\r\nFrame rate mode                          : Constant\r\nFrame rate                               : 30.000 fps\r\nColor space                              : YUV\r\nChroma subsampling                       : 4:2:0\r\nBit depth                                : 8 bits\r\nScan type                                : Progressive\r\nBits/(Pixel*Frame)                       : 0.100\r\nStream size                              : 728 MiB (93%)\r\n\r\n\r\nAudio\r\nID                                       : 2\r\nFormat                                   : AAC\r\nFormat/Info                              : Advanced Audio Codec\r\nFormat profile                           : LC\r\nCodec ID                                 : 40\r\nDuration                                 : 36mn 59s\r\nBit rate mode                            : Variable\r\nBit rate                                 : 192 Kbps\r\nMaximum bit rate                         : 202 Kbps\r\nChannel(s)                               : 2 channels\r\nChannel positions                        : Front: L R\r\nSampling rate                            : 44.1 KHz\r\nCompression mode                         : Lossy\r\nStream size                              : 50.8 MiB (7%)\r\n\r\n\r\nThumb sheet:\r\n \nhttp://extraimago.com/image/PHK","torrent":{"xt":"urn:btih:2cc29e4733669f078e9254d185511c36ee059aca","amp;dn":"UFC+194+Official+Weigh-Ins+720p+WEB-DL+x264+-+TX+-%3D%7BSPARROW%7D%3D-","amp;tr":["udp%3A%2F%2Ftracker.leechers-paradise.org%3A6969","udp%3A%2F%2Fzer0day.ch%3A1337","udp%3A%2F%2Fopen.demonii.com%3A1337","udp%3A%2F%2Ftracker.coppersurfer.tk%3A6969","udp%3A%2F%2Fexodus.desync.com%3A6969"],"infoHash":"2cc29e4733669f078e9254d185511c36ee059aca","infoHashBuffer":{"type":"Buffer","data":[44,194,158,71,51,102,159,7,142,146,84,209,133,81,28,54,238,5,154,202]},"announce":[],"urlList":[]}}